<svg width="103" height="27" viewBox="0 0 103 27" fill="none" xmlns="http://www.w3.org/2000/svg">
<path fill-rule="evenodd" clip-rule="evenodd" d="M2.04431 25.2423V13.8584H3.6442V24.4418H22.3604V13.8584H23.9603V25.2423C23.9603 25.6843 23.6021 26.0427 23.1603 26.0427H2.84426C2.40246 26.0427 2.04431 25.6843 2.04431 25.2423Z" fill="#1E9F14"/>
<path fill-rule="evenodd" clip-rule="evenodd" d="M13.0182 0.416748L25.5171 10.4669C25.8621 10.7443 25.918 11.2502 25.642 11.597C25.366 11.9437 24.8626 11.9999 24.5176 11.7225L13.0182 2.47606L1.51881 11.7225C1.17382 11.9999 0.670426 11.9437 0.394438 11.597C0.11845 11.2502 0.174383 10.7443 0.519368 10.4669L13.0182 0.416748Z" fill="#1E9F14"/>
<path d="M19.1778 12.6388C19.1778 13.0879 18.8196 13.452 18.3778 13.452C17.936 13.452 17.5779 13.0879 17.5779 12.6388C17.5779 12.1897 17.936 11.8257 18.3778 11.8257C18.8196 11.8257 19.1778 12.1897 19.1778 12.6388Z" fill="#0717DE"/>
<path fill-rule="evenodd" clip-rule="evenodd" d="M18.3778 13.452C18.8196 13.452 19.1778 13.0879 19.1778 12.6388C19.1778 12.1897 18.8196 11.8257 18.3778 11.8257C17.936 11.8257 17.5779 12.1897 17.5779 12.6388C17.5779 13.0879 17.936 13.452 18.3778 13.452Z" fill="#0717DE"/>
<path d="M17.3778 15.2245C17.3778 14.9192 17.6252 14.6716 17.9304 14.6716H18.8251C19.1303 14.6716 19.3777 14.9192 19.3777 15.2245V21.4369C19.3777 21.7423 19.1303 21.9898 18.8251 21.9898H17.9304C17.6252 21.9898 17.3778 21.7423 17.3778 21.4369V15.2245Z" fill="#0717DE"/>
<path fill-rule="evenodd" clip-rule="evenodd" d="M18.1778 15.4721V21.1894H18.5777V15.4721H18.1778ZM17.9304 14.6716C17.6252 14.6716 17.3778 14.9192 17.3778 15.2245V21.4369C17.3778 21.7423 17.6252 21.9898 17.9304 21.9898H18.8251C19.1303 21.9898 19.3777 21.7423 19.3777 21.4369V15.2245C19.3777 14.9192 19.1303 14.6716 18.8251 14.6716H17.9304Z" fill="#0717DE"/>
<path d="M15.7779 9.38629C15.7779 9.94764 15.3303 10.4027 14.778 10.4027C14.2258 10.4027 13.7781 9.94764 13.7781 9.38629C13.7781 8.82494 14.2258 8.36987 14.778 8.36987C15.3303 8.36987 15.7779 8.82494 15.7779 9.38629Z" fill="#0717DE"/>
<path fill-rule="evenodd" clip-rule="evenodd" d="M14.778 9.60228C14.8766 9.60228 14.978 9.51751 14.978 9.38629C14.978 9.25507 14.8766 9.1703 14.778 9.1703C14.6794 9.1703 14.578 9.25507 14.578 9.38629C14.578 9.51751 14.6794 9.60228 14.778 9.60228ZM14.778 10.4027C15.3303 10.4027 15.7779 9.94764 15.7779 9.38629C15.7779 8.82494 15.3303 8.36987 14.778 8.36987C14.2258 8.36987 13.7781 8.82494 13.7781 9.38629C13.7781 9.94764 14.2258 10.4027 14.778 10.4027Z" fill="#0717DE"/>
<path d="M13.7781 12.1752C13.7781 11.8699 14.0255 11.6223 14.3306 11.6223H15.2254C15.5305 11.6223 15.7779 11.8699 15.7779 12.1752V18.3876C15.7779 18.693 15.5305 18.9405 15.2254 18.9405H14.3306C14.0255 18.9405 13.7781 18.693 13.7781 18.3876V12.1752Z" fill="#0717DE"/>
<path fill-rule="evenodd" clip-rule="evenodd" d="M14.578 12.4227V18.1401H14.978V12.4227H14.578ZM14.3306 11.6223C14.0255 11.6223 13.7781 11.8699 13.7781 12.1752V18.3876C13.7781 18.693 14.0255 18.9405 14.3306 18.9405H15.2254C15.5305 18.9405 15.7779 18.693 15.7779 18.3876V12.1752C15.7779 11.8699 15.5305 11.6223 15.2254 11.6223H14.3306Z" fill="#0717DE"/>
<path d="M12.0782 11.4189C12.0782 11.9241 11.6753 12.3337 11.1783 12.3337C10.6812 12.3337 10.2783 11.9241 10.2783 11.4189C10.2783 10.9137 10.6812 10.5042 11.1783 10.5042C11.6753 10.5042 12.0782 10.9137 12.0782 11.4189Z" fill="#0717DE"/>
<path fill-rule="evenodd" clip-rule="evenodd" d="M11.1783 11.5333C11.2217 11.5333 11.2783 11.494 11.2783 11.4189C11.2783 11.3438 11.2217 11.3046 11.1783 11.3046C11.1349 11.3046 11.0783 11.3438 11.0783 11.4189C11.0783 11.494 11.1349 11.5333 11.1783 11.5333ZM11.1783 12.3337C11.6753 12.3337 12.0782 11.9241 12.0782 11.4189C12.0782 10.9137 11.6753 10.5042 11.1783 10.5042C10.6812 10.5042 10.2783 10.9137 10.2783 11.4189C10.2783 11.9241 10.6812 12.3337 11.1783 12.3337Z" fill="#0717DE"/>
<path d="M10.1782 14.1064C10.1782 13.801 10.4256 13.5535 10.7308 13.5535H11.6255C11.9307 13.5535 12.1781 13.801 12.1781 14.1064V20.3188C12.1781 20.6241 11.9307 20.8717 11.6255 20.8717H10.7308C10.4256 20.8717 10.1782 20.6241 10.1782 20.3188V14.1064Z" fill="#0717DE"/>
<path fill-rule="evenodd" clip-rule="evenodd" d="M10.9782 14.3539V20.0712H11.3781V14.3539H10.9782ZM10.7308 13.5535C10.4256 13.5535 10.1782 13.801 10.1782 14.1064V20.3188C10.1782 20.6241 10.4256 20.8717 10.7308 20.8717H11.6255C11.9307 20.8717 12.1781 20.6241 12.1781 20.3188V14.1064C12.1781 13.801 11.9307 13.5535 11.6255 13.5535H10.7308Z" fill="#0717DE"/>
<path d="M8.37845 13.4518C8.37845 13.9009 8.02031 14.2649 7.57851 14.2649C7.13671 14.2649 6.77856 13.9009 6.77856 13.4518C6.77856 13.0027 7.13671 12.6387 7.57851 12.6387C8.02031 12.6387 8.37845 13.0027 8.37845 13.4518Z" fill="#0717DE"/>
<path fill-rule="evenodd" clip-rule="evenodd" d="M7.57851 14.2649C8.02031 14.2649 8.37845 13.9009 8.37845 13.4518C8.37845 13.0027 8.02031 12.6387 7.57851 12.6387C7.13671 12.6387 6.77856 13.0027 6.77856 13.4518C6.77856 13.9009 7.13671 14.2649 7.57851 14.2649Z" fill="#0717DE"/>
<path d="M6.57849 16.2028C6.57849 15.8974 6.82589 15.6499 7.13106 15.6499H8.02578C8.33096 15.6499 8.57835 15.8974 8.57835 16.2028V22.4152C8.57835 22.7206 8.33096 22.9681 8.02578 22.9681H7.13106C6.82589 22.9681 6.57849 22.7206 6.57849 22.4152V16.2028Z" fill="#0717DE"/>
<path fill-rule="evenodd" clip-rule="evenodd" d="M7.37844 16.4503V22.1677H7.77841V16.4503H7.37844ZM7.13106 15.6499C6.82589 15.6499 6.57849 15.8974 6.57849 16.2028V22.4152C6.57849 22.7206 6.82589 22.9681 7.13106 22.9681H8.02578C8.33096 22.9681 8.57835 22.7206 8.57835 22.4152V16.2028C8.57835 15.8974 8.33096 15.6499 8.02578 15.6499H7.13106Z" fill="#0717DE"/>
<path fill-rule="evenodd" clip-rule="evenodd" d="M90.0872 22.4238L90.132 22.3453C90.3165 22.0227 90.607 21.7389 90.9835 21.488L90.9865 21.4861L90.9894 21.4842C91.396 21.2276 91.8293 21.075 92.287 21.0314L92.5592 21.0055L92.5964 21.2764C92.7226 22.1954 93.161 22.9606 93.9267 23.581C94.7067 24.1781 95.7059 24.4865 96.9454 24.4865C98.1439 24.4865 98.9695 24.2287 99.4809 23.7688C100.028 23.2749 100.295 22.6776 100.295 21.9595C100.295 21.2353 100.044 20.697 99.553 20.3082L99.5492 20.3052C99.0534 19.8983 98.158 19.5197 96.8186 19.1899L96.8166 19.1894L95.0883 18.7503C95.0881 18.7503 95.0879 18.7502 95.0877 18.7502C94.4533 18.5917 93.8755 18.4127 93.355 18.2126L93.3514 18.2113C92.8435 18.0082 92.3918 17.7627 91.9985 17.4731L91.9917 17.468L91.9851 17.4626C91.6046 17.1458 91.3057 16.7733 91.0919 16.3459C90.8717 15.9058 90.7686 15.381 90.7686 14.7831C90.7686 14.1269 90.9385 13.4946 91.2721 12.8897C91.6035 12.2694 92.0579 11.7238 92.6315 11.2529L92.6353 11.2498C93.2277 10.7803 93.9002 10.4142 94.6505 10.1505C95.4267 9.86506 96.2608 9.72363 97.1506 9.72363C98.0495 9.72363 98.8251 9.83296 99.4696 10.0608C100.095 10.2628 100.623 10.529 101.045 10.8649C101.478 11.1749 101.804 11.527 102.005 11.9259C102.21 12.2962 102.336 12.648 102.359 12.976L102.365 13.054L102.33 13.1239C102.165 13.4543 101.889 13.7334 101.526 13.9679L101.521 13.9712L101.516 13.9743C101.148 14.1909 100.746 14.3206 100.315 14.3637L100.054 14.3898L100.007 14.1318C99.8828 13.4594 99.5384 12.8704 98.9562 12.3614C98.4036 11.8782 97.5452 11.6117 96.3298 11.6117C95.9469 11.6117 95.5629 11.6663 95.1769 11.7765L95.1724 11.7778L95.1678 11.779C94.8079 11.8689 94.4878 12.0117 94.2048 12.206C93.9234 12.3994 93.697 12.6348 93.523 12.9131L93.5207 12.9167L93.5184 12.9202C93.3591 13.1589 93.2732 13.4532 93.2732 13.8165C93.2732 14.4031 93.4758 14.859 93.8767 15.2107C94.2928 15.5559 95.0577 15.8752 96.2187 16.1459L96.222 16.1467L98.0118 16.5865C99.7247 17.0194 100.991 17.5797 101.767 18.2905C102.572 18.9907 102.976 19.8994 102.976 20.9929C102.976 21.6821 102.819 22.3579 102.509 23.0179L102.507 23.0211C102.195 23.6652 101.74 24.2423 101.147 24.7531L101.143 24.7568C100.545 25.251 99.82 25.6372 98.9729 25.9197C98.1164 26.2249 97.146 26.3746 96.066 26.3746C95.1257 26.3746 94.2932 26.255 93.5735 26.0089C92.8674 25.7868 92.2538 25.4917 91.7372 25.12L91.7327 25.1168C91.2412 24.7484 90.8532 24.3424 90.5769 23.8964L90.5753 23.8939L90.5738 23.8914C90.3029 23.4332 90.1395 22.9735 90.0957 22.5138L90.0872 22.4238ZM93.6624 25.7381C94.3464 25.9725 95.1476 26.0896 96.066 26.0896C97.1213 26.0896 98.0592 25.9432 98.88 25.6503C99.7007 25.3769 100.394 25.0059 100.961 24.5372C101.528 24.049 101.958 23.5022 102.251 22.8969C102.544 22.272 102.691 21.6373 102.691 20.9929C102.691 19.9775 102.319 19.1476 101.577 18.5031C100.854 17.8392 99.6421 17.2924 97.942 16.8628L96.1539 16.4234C94.9815 16.1501 94.1607 15.8181 93.6917 15.4275C93.2227 15.0175 92.9882 14.4804 92.9882 13.8165C92.9882 13.4064 93.0859 13.0549 93.2813 12.762C93.4768 12.4496 93.7308 12.1859 94.0435 11.9711C94.3561 11.7563 94.7079 11.6001 95.0987 11.5025C95.5091 11.3853 95.9194 11.3267 96.3298 11.3267C97.5805 11.3267 98.5185 11.6001 99.1438 12.1469C99.7691 12.6937 100.15 13.3381 100.287 14.0801C100.678 14.0411 101.039 13.9239 101.372 13.7286C101.704 13.5138 101.938 13.2697 102.075 12.9963C102.055 12.723 101.948 12.4105 101.753 12.059C101.577 11.7075 101.284 11.3853 100.873 11.0924C100.482 10.78 99.9841 10.5261 99.3783 10.3308C98.7725 10.116 98.0299 10.0086 97.1506 10.0086C96.2907 10.0086 95.4895 10.1453 94.747 10.4187C94.0239 10.6726 93.3791 11.0241 92.8123 11.4732C92.2652 11.9223 91.8353 12.4398 91.5226 13.0256C91.2099 13.5919 91.0536 14.1778 91.0536 14.7831C91.0536 15.3494 91.1513 15.8279 91.3467 16.2184C91.5422 16.609 91.8157 16.9507 92.1675 17.2436C92.5388 17.517 92.9687 17.7513 93.4572 17.9466C93.9653 18.1419 94.532 18.3176 95.1573 18.4739L96.8867 18.9132C98.2351 19.2452 99.1829 19.6358 99.73 20.0849C100.297 20.534 100.58 21.1589 100.58 21.9595C100.58 22.7602 100.277 23.4339 99.6714 23.9807C99.0852 24.5079 98.1765 24.7715 96.9454 24.7715C95.6556 24.7715 94.5906 24.4493 93.7503 23.8049C92.9296 23.141 92.4508 22.311 92.314 21.3151C92.2432 21.3219 92.173 21.3315 92.1034 21.3441C92.0796 21.3483 92.0559 21.353 92.0323 21.3579C91.7238 21.4227 91.4269 21.5451 91.1415 21.7252C90.7898 21.9595 90.5358 22.2134 90.3794 22.4868C90.4185 22.8969 90.5651 23.3167 90.8191 23.7463C91.0732 24.1564 91.4347 24.5372 91.9037 24.8887C92.3922 25.2402 92.9784 25.5233 93.6624 25.7381Z" fill="#1E9F14"/>
<path d="M96.066 26.0896C95.1476 26.0896 94.3464 25.9725 93.6624 25.7381C92.9784 25.5233 92.3922 25.2402 91.9037 24.8887C91.4347 24.5372 91.0732 24.1564 90.8191 23.7463C90.5651 23.3167 90.4185 22.8969 90.3794 22.4868C90.5358 22.2134 90.7898 21.9595 91.1415 21.7252C91.4269 21.5451 91.7238 21.4227 92.0323 21.3579C92.0559 21.353 92.0796 21.3483 92.1034 21.3441C92.173 21.3315 92.2432 21.3219 92.314 21.3151C92.4508 22.311 92.9296 23.141 93.7503 23.8049C94.5906 24.4493 95.6556 24.7715 96.9454 24.7715C98.1765 24.7715 99.0852 24.5079 99.6714 23.9807C100.277 23.4339 100.58 22.7602 100.58 21.9595C100.58 21.1589 100.297 20.534 99.73 20.0849C99.1829 19.6358 98.2351 19.2452 96.8867 18.9132L95.1573 18.4739C94.532 18.3176 93.9653 18.1419 93.4572 17.9466C92.9687 17.7513 92.5388 17.517 92.1675 17.2436C91.8157 16.9507 91.5422 16.609 91.3467 16.2184C91.1513 15.8279 91.0536 15.3494 91.0536 14.7831C91.0536 14.1778 91.2099 13.5919 91.5226 13.0256C91.8353 12.4398 92.2652 11.9223 92.8123 11.4732C93.3791 11.0241 94.0239 10.6726 94.747 10.4187C95.4895 10.1453 96.2907 10.0086 97.1506 10.0086C98.0299 10.0086 98.7725 10.116 99.3783 10.3308C99.9841 10.5261 100.482 10.78 100.873 11.0924C101.284 11.3853 101.577 11.7075 101.753 12.059C101.948 12.4105 102.055 12.723 102.075 12.9963C101.938 13.2697 101.704 13.5138 101.372 13.7286C101.039 13.9239 100.678 14.0411 100.287 14.0801C100.15 13.3381 99.7691 12.6937 99.1438 12.1469C98.5185 11.6001 97.5805 11.3267 96.3298 11.3267C95.9194 11.3267 95.5091 11.3853 95.0987 11.5025C94.7079 11.6001 94.3561 11.7563 94.0435 11.9711C93.7308 12.1859 93.4768 12.4496 93.2813 12.762C93.0859 13.0549 92.9882 13.4064 92.9882 13.8165C92.9882 14.4804 93.2227 15.0175 93.6917 15.4275C94.1607 15.8181 94.9815 16.1501 96.1539 16.4234L97.942 16.8628C99.6421 17.2924 100.854 17.8392 101.577 18.5031C102.319 19.1476 102.691 19.9775 102.691 20.9929C102.691 21.6373 102.544 22.272 102.251 22.8969C101.958 23.5022 101.528 24.049 100.961 24.5372C100.394 25.0059 99.7007 25.3769 98.88 25.6503C98.0592 25.9432 97.1213 26.0896 96.066 26.0896Z" fill="#1E9F14"/>
<path fill-rule="evenodd" clip-rule="evenodd" d="M33.7423 22.3089L33.7871 22.2305C33.9716 21.9077 34.2621 21.6237 34.6386 21.3726L34.6415 21.3707L34.6445 21.3688C35.0511 21.1121 35.4844 20.9593 35.9422 20.9157L36.2143 20.8898L36.2515 21.1606C36.3778 22.0805 36.8162 22.8462 37.5819 23.4671C38.3619 24.0646 39.361 24.3733 40.6005 24.3733C41.799 24.3733 42.6245 24.1152 43.1359 23.655C43.6829 23.1608 43.9503 22.563 43.9503 21.8443C43.9503 21.1194 43.6987 20.5807 43.2081 20.1916L43.2043 20.1885C42.7085 19.7813 41.813 19.4025 40.4737 19.0725L40.4717 19.072L38.7434 18.6326C38.7432 18.6325 38.7431 18.6325 38.7429 18.6325C38.1085 18.4738 37.5306 18.2947 37.0101 18.0945L37.0065 18.0931C36.4986 17.8899 36.0469 17.6442 35.6536 17.3544L35.6467 17.3494L35.6402 17.3439C35.2597 17.0269 34.9608 16.6542 34.747 16.2265C34.5268 15.7861 34.4238 15.261 34.4238 14.6628C34.4238 14.0062 34.5936 13.3735 34.9272 12.7681C35.2586 12.1474 35.713 11.6015 36.2866 11.1303L36.2904 11.1272C36.8828 10.6573 37.5553 10.2909 38.3056 10.0271C39.0818 9.74141 39.9159 9.59988 40.8057 9.59988C41.7046 9.59988 42.4803 9.70929 43.1248 9.93734C43.7502 10.1395 44.2782 10.4058 44.7003 10.742C45.1329 11.0522 45.4588 11.4045 45.6598 11.8036C45.865 12.1742 45.991 12.5262 46.0144 12.8544L46.02 12.9323L45.9851 13.0022C45.8197 13.3328 45.5442 13.6121 45.1815 13.8468L45.1764 13.8501L45.1712 13.8532C44.8027 14.0699 44.4015 14.1997 43.9705 14.2428L43.7094 14.2689L43.6619 14.0109C43.5379 13.3379 43.1934 12.7485 42.6113 12.2391C42.0587 11.7556 41.2003 11.4889 39.985 11.4889C39.6021 11.4889 39.2181 11.5435 38.8321 11.6538L38.8276 11.6551L38.823 11.6563C38.4631 11.7462 38.143 11.8891 37.8601 12.0836C37.5786 12.2771 37.3522 12.5127 37.1781 12.7913L37.1759 12.7948L37.1736 12.7983C37.0143 13.0373 36.9283 13.3318 36.9283 13.6955C36.9283 14.2826 37.131 14.7389 37.5319 15.0909C37.948 15.4363 38.7129 15.7558 39.8738 16.0267L39.8771 16.0275L41.667 16.4676C43.38 16.9008 44.646 17.4615 45.4218 18.1729C46.227 18.8736 46.6307 19.7828 46.6307 20.877C46.6307 21.5666 46.4737 22.2428 46.1641 22.9032L46.1626 22.9064C45.8507 23.551 45.3953 24.1285 44.8024 24.6396L44.798 24.6433C44.2005 25.1378 43.4752 25.5243 42.6281 25.807C41.7716 26.1125 40.8012 26.2623 39.7212 26.2623C38.7809 26.2623 37.9483 26.1425 37.2286 25.8963C36.5225 25.6741 35.9089 25.3787 35.3923 25.0068L35.3878 25.0035C34.8963 24.6349 34.5082 24.2286 34.2319 23.7823L34.2304 23.7798L34.2289 23.7773C33.958 23.3188 33.7947 22.8588 33.7509 22.3989L33.7423 22.3089ZM37.3175 25.6255C38.0015 25.86 38.8027 25.9773 39.7212 25.9773C40.7764 25.9773 41.7144 25.8307 42.5351 25.5376C43.3559 25.264 44.0496 24.8927 44.6163 24.4237C45.183 23.9352 45.6129 23.388 45.906 22.7823C46.1992 22.1569 46.3457 21.5218 46.3457 20.877C46.3457 19.8608 45.9744 19.0303 45.2319 18.3854C44.5088 17.721 43.2972 17.1738 41.5971 16.7439L39.8091 16.3042C38.6366 16.0307 37.8159 15.6985 37.3469 15.3076C36.8779 14.8973 36.6434 14.3599 36.6434 13.6955C36.6434 13.2851 36.7411 12.9333 36.9365 12.6402C37.1319 12.3276 37.3859 12.0637 37.6986 11.8488C38.0113 11.6338 38.363 11.4775 38.7538 11.3798C39.1642 11.2625 39.5746 11.2039 39.985 11.2039C41.2356 11.2039 42.1736 11.4775 42.7989 12.0247C43.4243 12.5718 43.8053 13.2167 43.9421 13.9593C44.3329 13.9202 44.6945 13.8029 45.0267 13.6075C45.3589 13.3926 45.5934 13.1483 45.7302 12.8747C45.7106 12.6011 45.6031 12.2885 45.4077 11.9367C45.2319 11.585 44.9387 11.2625 44.5284 10.9694C44.1375 10.6568 43.6392 10.4027 43.0334 10.2073C42.4276 9.99234 41.6851 9.88486 40.8057 9.88486C39.9459 9.88486 39.1447 10.0217 38.4021 10.2952C37.6791 10.5493 37.0342 10.901 36.4675 11.3505C35.9203 11.7999 35.4904 12.3178 35.1778 12.904C34.8651 13.4707 34.7088 14.057 34.7088 14.6628C34.7088 15.2295 34.8065 15.7082 35.0019 16.0991C35.1973 16.4899 35.4709 16.8319 35.8226 17.125C36.1939 17.3986 36.6238 17.6331 37.1124 17.8285C37.6204 18.0239 38.1871 18.1998 38.8125 18.3561L40.5419 18.7958C41.8903 19.128 42.838 19.5188 43.3852 19.9683C43.9519 20.4177 44.2352 21.0431 44.2352 21.8443C44.2352 22.6455 43.9323 23.3196 43.3266 23.8668C42.7403 24.3944 41.8316 24.6582 40.6005 24.6582C39.3108 24.6582 38.2458 24.3358 37.4055 23.6909C36.5847 23.0265 36.106 22.196 35.9692 21.1994C35.8987 21.2061 35.8288 21.2157 35.7595 21.2282C35.7354 21.2325 35.7114 21.2372 35.6874 21.2422C35.379 21.307 35.0821 21.4295 34.7967 21.6098C34.4449 21.8443 34.1909 22.0983 34.0346 22.3719C34.0737 22.7823 34.2202 23.2024 34.4743 23.6323C34.7283 24.0427 35.0898 24.4237 35.5588 24.7755C36.0473 25.1272 36.6336 25.4106 37.3175 25.6255ZM59.6118 13.4187C59.1862 12.8081 58.6613 12.3298 58.0358 11.9803C57.4191 11.6357 56.706 11.4596 55.8885 11.4596C55.2997 11.4596 54.7299 11.5698 54.1769 11.7909C53.635 12.0077 53.1532 12.3517 52.731 12.829L52.7273 12.8332C52.3085 13.2884 51.9546 13.8887 51.6712 14.6437C51.4122 15.3663 51.2783 16.2497 51.2783 17.3009C51.2783 18.5091 51.4221 19.5526 51.7037 20.436C52.0075 21.3276 52.3931 22.0675 52.8563 22.6615C53.3401 23.2374 53.8839 23.6687 54.4871 23.9614C55.1137 24.256 55.7655 24.4026 56.4454 24.4026C57.9389 24.4026 59.0408 23.912 59.7973 22.9581C60.5618 21.9745 60.9676 20.4661 60.9676 18.3854C60.9676 17.3912 60.8529 16.4684 60.6255 15.6156C60.3988 14.7653 60.0608 14.0362 59.6151 13.4234L59.6118 13.4187ZM60.0215 23.134C59.2007 24.1697 58.0087 24.6876 56.4454 24.6876C55.7224 24.6876 55.0286 24.5312 54.3642 24.2186C53.7194 23.9059 53.1429 23.4467 52.6348 22.8409C52.1463 22.2156 51.7457 21.4437 51.433 20.5252C51.1399 19.6068 50.9933 18.532 50.9933 17.3009C50.9933 16.2261 51.1301 15.3076 51.4037 14.5455C51.6968 13.7639 52.0681 13.1288 52.5176 12.6402C52.967 12.1321 53.4849 11.7608 54.0711 11.5264C54.6573 11.2919 55.2631 11.1746 55.8885 11.1746C56.7483 11.1746 57.5104 11.3602 58.1748 11.7315C58.8392 12.1028 59.3962 12.6109 59.8456 13.2558C60.3146 13.9006 60.6664 14.6628 60.9009 15.5421C61.1354 16.4215 61.2526 17.3693 61.2526 18.3854C61.2526 20.4959 60.8422 22.0788 60.0215 23.134ZM50.4371 24.1532C49.764 23.4597 49.2272 22.6169 48.8242 21.6295L48.8229 21.6263L48.8216 21.6231C48.4361 20.6085 48.2461 19.4692 48.2461 18.2095C48.2461 16.9828 48.4674 15.841 48.9131 14.7872C49.3559 13.7207 49.9522 12.8094 50.7039 12.0576C51.4725 11.289 52.363 10.692 53.3733 10.2675C54.4061 9.82218 55.4994 9.59988 56.6506 9.59988C57.8932 9.59988 58.9814 9.81022 59.9064 10.2417C60.8387 10.6675 61.6067 11.2388 62.2034 11.9583C62.8159 12.6734 63.2634 13.5091 63.5475 14.4614C63.8494 15.4086 63.9998 16.4044 63.9998 17.4474C63.9998 18.6695 63.8094 19.8162 63.4262 20.8852C63.043 21.9541 62.487 22.8953 61.7576 23.7057C61.0454 24.4991 60.1722 25.1276 59.142 25.5922C58.1031 26.0607 56.9288 26.2916 55.6247 26.2916C54.65 26.2916 53.7144 26.1086 52.82 25.7427C51.9248 25.3765 51.1309 24.8471 50.4401 24.1563L50.4371 24.1532ZM61.5457 23.5151C62.2492 22.7334 62.7866 21.8247 63.1579 20.789C63.5292 19.7533 63.7148 18.6395 63.7148 17.4474C63.7148 16.4313 63.5683 15.464 63.2751 14.5455C63.0016 13.6271 62.5717 12.8259 61.9854 12.1419C61.4187 11.458 60.6859 10.9108 59.787 10.5004C58.9076 10.09 57.8622 9.88486 56.6506 9.88486C55.5367 9.88486 54.4815 10.0998 53.4849 10.5297C52.5078 10.9401 51.648 11.5166 50.9054 12.2592C50.1823 12.9822 49.6059 13.8616 49.176 14.8973C48.746 15.9134 48.5311 17.0175 48.5311 18.2095C48.5311 19.4407 48.7167 20.5448 49.088 21.5218C49.4788 22.4794 49.9967 23.2903 50.6416 23.9547C51.306 24.6192 52.0681 25.1272 52.9279 25.479C53.7878 25.8307 54.6867 26.0066 55.6247 26.0066C56.8948 26.0066 58.0283 25.7819 59.0249 25.3324C60.0215 24.883 60.8618 24.2772 61.5457 23.5151ZM66.916 3.17665L67.0676 3.09637C67.4256 2.90685 67.8134 2.77097 68.2296 2.68772L68.2322 2.68721C68.6598 2.60577 69.088 2.56494 69.5166 2.56494H69.8016V25.4099L69.658 25.4919C69.3429 25.6719 68.9444 25.7869 68.476 25.8486C68.0337 25.9286 67.6086 25.9692 67.2009 25.9692H66.916V3.17665ZM68.432 25.5669C68.8815 25.5083 69.243 25.4008 69.5166 25.2445V2.84992C69.4216 2.84992 69.3266 2.85202 69.2316 2.8562C68.9162 2.87011 68.6009 2.9071 68.2855 2.96717C67.8947 3.04534 67.5331 3.17236 67.2009 3.34823V25.6842C67.2948 25.6842 67.3898 25.6819 67.4859 25.6774C67.79 25.6631 68.1054 25.6263 68.432 25.5669ZM84.1311 13.4187C83.7055 12.8081 83.1805 12.3298 82.555 11.9803C81.9384 11.6357 81.2253 11.4596 80.4077 11.4596C79.819 11.4596 79.2491 11.5698 78.6962 11.7909C78.1543 12.0077 77.6725 12.3517 77.2502 12.829L77.2466 12.8332C76.8278 13.2884 76.4738 13.8888 76.1904 14.6438C75.9314 15.3664 75.7975 16.2498 75.7975 17.3009C75.7975 18.5091 75.9413 19.5526 76.2229 20.4359C76.5267 21.3276 76.9123 22.0675 77.3756 22.6616C77.8593 23.2374 78.4031 23.6687 79.0063 23.9614C79.6329 24.256 80.2848 24.4026 80.9646 24.4026C82.4582 24.4026 83.5601 23.912 84.3166 22.958C85.0811 21.9744 85.4869 20.4661 85.4869 18.3854C85.4869 17.3912 85.3722 16.4684 85.1447 15.6156C84.918 14.7653 84.58 14.0362 84.1344 13.4234L84.1311 13.4187ZM84.5407 23.134C83.72 24.1697 82.528 24.6876 80.9646 24.6876C80.2416 24.6876 79.5479 24.5312 78.8835 24.2186C78.2386 23.9059 77.6621 23.4467 77.154 22.8409C76.6655 22.2156 76.2649 21.4437 75.9522 20.5252C75.6591 19.6068 75.5126 18.532 75.5126 17.3009C75.5126 16.2261 75.6493 15.3076 75.9229 14.5455C76.2161 13.7639 76.5873 13.1288 77.0368 12.6402C77.4862 12.1321 78.0041 11.7608 78.5903 11.5264C79.1766 11.2919 79.7824 11.1746 80.4077 11.1746C81.2675 11.1746 82.0296 11.3602 82.6941 11.7315C83.3585 12.1028 83.9154 12.6109 84.3649 13.2558C84.8339 13.9006 85.1856 14.6628 85.4201 15.5421C85.6546 16.4215 85.7718 17.3693 85.7718 18.3854C85.7718 20.4959 85.3615 22.0788 84.5407 23.134ZM74.9593 24.1563L74.9563 24.1532C74.2832 23.4598 73.7464 22.6169 73.3434 21.6295L73.3421 21.6263L73.3409 21.6231C72.9553 20.6085 72.7653 19.4692 72.7653 18.2095C72.7653 16.9828 72.9867 15.841 73.4323 14.7872C73.8751 13.7207 74.4714 12.8094 75.2231 12.0576C75.9918 11.289 76.8822 10.692 77.8926 10.2675C78.9254 9.82217 80.0187 9.59988 81.1698 9.59988C82.4125 9.59988 83.5007 9.81023 84.4257 10.2417C85.358 10.6675 86.126 11.2388 86.7226 11.9583C87.3351 12.6735 87.7827 13.5092 88.0668 14.4616C88.3687 15.4087 88.5191 16.4045 88.5191 17.4474C88.5191 18.6695 88.3286 19.8162 87.9454 20.8852C87.5622 21.9541 87.0062 22.8953 86.2768 23.7057C86.2767 23.7058 86.2769 23.7056 86.2768 23.7057C85.5647 24.4991 84.6914 25.1276 83.6613 25.5922C82.6223 26.0607 81.448 26.2916 80.1439 26.2916C79.1693 26.2916 78.2337 26.1086 77.3393 25.7427C76.444 25.3765 75.6502 24.8471 74.9593 24.1563ZM87.7944 14.5455C87.5208 13.6271 87.0909 12.8259 86.5047 12.1419C85.938 11.458 85.2051 10.9108 84.3062 10.5004C83.4269 10.09 82.3814 9.88486 81.1698 9.88486C80.056 9.88486 79.0007 10.0998 78.0041 10.5297C77.027 10.9401 76.1672 11.5166 75.4246 12.2592C74.7016 12.9822 74.1251 13.8616 73.6952 14.8973C73.2653 15.9134 73.0503 17.0175 73.0503 18.2095C73.0503 19.4407 73.236 20.5448 73.6073 21.5218C73.9981 22.4794 74.5159 23.2903 75.1608 23.9547C75.8252 24.6192 76.5873 25.1272 77.4472 25.479C78.307 25.8307 79.2059 26.0066 80.1439 26.0066C81.4141 26.0066 82.5475 25.7819 83.5441 25.3324C84.5407 24.883 85.381 24.2772 86.065 23.5151C86.7685 22.7334 87.3059 21.8247 87.6771 20.789C88.0484 19.7533 88.2341 18.6395 88.2341 17.4474C88.2341 16.4313 88.0875 15.464 87.7944 14.5455Z" fill="#0717DE"/>
<path fill-rule="evenodd" clip-rule="evenodd" d="M86.5047 12.1419C87.0909 12.8259 87.5208 13.6271 87.7944 14.5455C88.0875 15.464 88.2341 16.4313 88.2341 17.4474C88.2341 18.6395 88.0484 19.7533 87.6771 20.789C87.3059 21.8247 86.7685 22.7334 86.065 23.5151C85.381 24.2772 84.5407 24.883 83.5441 25.3324C82.5475 25.7819 81.4141 26.0066 80.1439 26.0066C79.2059 26.0066 78.307 25.8307 77.4472 25.479C76.5873 25.1272 75.8252 24.6192 75.1608 23.9547C74.5159 23.2903 73.9981 22.4794 73.6073 21.5218C73.236 20.5448 73.0503 19.4407 73.0503 18.2095C73.0503 17.0175 73.2653 15.9134 73.6952 14.8973C74.1251 13.8616 74.7016 12.9822 75.4246 12.2592C76.1672 11.5166 77.027 10.9401 78.0041 10.5297C79.0007 10.0998 80.056 9.88486 81.1698 9.88486C82.3814 9.88486 83.4269 10.09 84.3062 10.5004C85.2051 10.9108 85.938 11.458 86.5047 12.1419ZM84.5407 23.134C83.72 24.1697 82.528 24.6876 80.9646 24.6876C80.2416 24.6876 79.5479 24.5312 78.8835 24.2186C78.2386 23.9059 77.6621 23.4467 77.154 22.8409C76.6655 22.2156 76.2649 21.4437 75.9522 20.5252C75.6591 19.6068 75.5126 18.532 75.5126 17.3009C75.5126 16.2261 75.6493 15.3076 75.9229 14.5455C76.2161 13.7639 76.5873 13.1288 77.0368 12.6402C77.4862 12.1321 78.0041 11.7608 78.5903 11.5264C79.1766 11.2919 79.7824 11.1746 80.4077 11.1746C81.2675 11.1746 82.0296 11.3602 82.6941 11.7315C83.3585 12.1028 83.9154 12.6109 84.3649 13.2558C84.8339 13.9006 85.1856 14.6628 85.4201 15.5421C85.6546 16.4215 85.7718 17.3693 85.7718 18.3854C85.7718 20.4959 85.3615 22.0788 84.5407 23.134Z" fill="#0717DE"/>
<path d="M68.432 25.5669C68.8815 25.5083 69.243 25.4008 69.5166 25.2445V2.84992C69.4216 2.84992 69.3266 2.85202 69.2316 2.8562C68.9162 2.87011 68.6009 2.9071 68.2855 2.96717C67.8947 3.04534 67.5331 3.17236 67.2009 3.34823V25.6842C67.2948 25.6842 67.3898 25.6819 67.4859 25.6774C67.79 25.6631 68.1054 25.6263 68.432 25.5669Z" fill="#0717DE"/>
<path fill-rule="evenodd" clip-rule="evenodd" d="M63.1579 20.789C62.7866 21.8247 62.2492 22.7334 61.5457 23.5151C60.8618 24.2772 60.0215 24.883 59.0249 25.3324C58.0283 25.7819 56.8948 26.0066 55.6247 26.0066C54.6867 26.0066 53.7878 25.8307 52.9279 25.479C52.0681 25.1272 51.306 24.6192 50.6416 23.9547C49.9967 23.2903 49.4788 22.4794 49.088 21.5218C48.7167 20.5448 48.5311 19.4407 48.5311 18.2095C48.5311 17.0175 48.746 15.9134 49.176 14.8973C49.6059 13.8616 50.1823 12.9822 50.9054 12.2592C51.648 11.5166 52.5078 10.9401 53.4849 10.5297C54.4815 10.0998 55.5367 9.88486 56.6506 9.88486C57.8622 9.88486 58.9076 10.09 59.787 10.5004C60.6859 10.9108 61.4187 11.458 61.9854 12.1419C62.5717 12.8259 63.0016 13.6271 63.2751 14.5455C63.5683 15.464 63.7148 16.4313 63.7148 17.4474C63.7148 18.6395 63.5292 19.7533 63.1579 20.789ZM60.0215 23.134C59.2007 24.1697 58.0087 24.6876 56.4454 24.6876C55.7224 24.6876 55.0286 24.5312 54.3642 24.2186C53.7194 23.9059 53.1429 23.4467 52.6348 22.8409C52.1463 22.2156 51.7457 21.4437 51.433 20.5252C51.1399 19.6068 50.9933 18.532 50.9933 17.3009C50.9933 16.2261 51.1301 15.3076 51.4037 14.5455C51.6968 13.7639 52.0681 13.1288 52.5176 12.6402C52.967 12.1321 53.4849 11.7608 54.0711 11.5264C54.6573 11.2919 55.2631 11.1746 55.8885 11.1746C56.7483 11.1746 57.5104 11.3602 58.1748 11.7315C58.8392 12.1028 59.3962 12.6109 59.8456 13.2558C60.3146 13.9006 60.6664 14.6628 60.9009 15.5421C61.1354 16.4215 61.2526 17.3693 61.2526 18.3854C61.2526 20.4959 60.8422 22.0788 60.0215 23.134Z" fill="#0717DE"/>
<path d="M39.7212 25.9773C38.8027 25.9773 38.0015 25.86 37.3175 25.6255C36.6336 25.4106 36.0473 25.1272 35.5588 24.7755C35.0898 24.4237 34.7283 24.0427 34.4743 23.6323C34.2202 23.2024 34.0737 22.7823 34.0346 22.3719C34.1909 22.0983 34.4449 21.8443 34.7967 21.6098C35.0821 21.4295 35.379 21.307 35.6874 21.2422C35.7114 21.2372 35.7354 21.2325 35.7595 21.2282C35.8288 21.2157 35.8987 21.2061 35.9692 21.1994C36.106 22.196 36.5847 23.0265 37.4055 23.6909C38.2458 24.3358 39.3108 24.6582 40.6005 24.6582C41.8316 24.6582 42.7403 24.3944 43.3266 23.8668C43.9323 23.3196 44.2352 22.6455 44.2352 21.8443C44.2352 21.0431 43.9519 20.4177 43.3852 19.9683C42.838 19.5188 41.8903 19.128 40.5419 18.7958L38.8125 18.3561C38.1871 18.1998 37.6204 18.0239 37.1124 17.8285C36.6238 17.6331 36.1939 17.3986 35.8226 17.125C35.4709 16.8319 35.1973 16.4899 35.0019 16.0991C34.8065 15.7082 34.7088 15.2295 34.7088 14.6628C34.7088 14.057 34.8651 13.4707 35.1778 12.904C35.4904 12.3178 35.9203 11.7999 36.4675 11.3505C37.0342 10.901 37.6791 10.5493 38.4021 10.2952C39.1447 10.0217 39.9459 9.88486 40.8057 9.88486C41.6851 9.88486 42.4276 9.99234 43.0334 10.2073C43.6392 10.4027 44.1375 10.6568 44.5284 10.9694C44.9387 11.2625 45.2319 11.585 45.4077 11.9367C45.6031 12.2885 45.7106 12.6011 45.7302 12.8747C45.5934 13.1483 45.3589 13.3926 45.0267 13.6075C44.6945 13.8029 44.3329 13.9202 43.9421 13.9593C43.8053 13.2167 43.4243 12.5718 42.7989 12.0247C42.1736 11.4775 41.2356 11.2039 39.985 11.2039C39.5746 11.2039 39.1642 11.2625 38.7538 11.3798C38.363 11.4775 38.0113 11.6338 37.6986 11.8488C37.3859 12.0637 37.1319 12.3276 36.9365 12.6402C36.7411 12.9333 36.6434 13.2851 36.6434 13.6955C36.6434 14.3599 36.8779 14.8973 37.3469 15.3076C37.8159 15.6985 38.6366 16.0307 39.8091 16.3042L41.5971 16.7439C43.2972 17.1738 44.5088 17.721 45.2319 18.3854C45.9744 19.0303 46.3457 19.8608 46.3457 20.877C46.3457 21.5218 46.1992 22.1569 45.906 22.7823C45.6129 23.388 45.183 23.9352 44.6163 24.4237C44.0496 24.8927 43.3559 25.264 42.5351 25.5376C41.7144 25.8307 40.7764 25.9773 39.7212 25.9773Z" fill="#0717DE"/>
</svg>
